<mxfile host="app.diagrams.net" modified="2021-09-16T23:49:41.518Z" agent="5.0 (Windows NT 10.0; Win64; x64) AppleWebKit/537.36 (KHTML, like Gecko) Chrome/93.0.4577.82 Safari/537.36" etag="Tcfxeosmcw-Pc7lMPY63" version="15.1.4" type="github">
  <diagram id="7SNZjYS4gO5dO7elBDzg" name="Page-1">
    <mxGraphModel dx="868" dy="433" grid="1" gridSize="10" guides="1" tooltips="1" connect="1" arrows="1" fold="1" page="1" pageScale="1" pageWidth="850" pageHeight="1100" math="0" shadow="0">
      <root>
        <mxCell id="0" />
        <mxCell id="1" parent="0" />
        <mxCell id="7AKEyjh2fbhWJkEHDeZu-1" value="HAIRSTYLIST" style="swimlane;fontStyle=0;childLayout=stackLayout;horizontal=1;startSize=26;horizontalStack=0;resizeParent=1;resizeParentMax=0;resizeLast=0;collapsible=1;marginBottom=0;rounded=1;" parent="1" vertex="1">
          <mxGeometry x="136" y="120" width="140" height="208" as="geometry" />
        </mxCell>
        <mxCell id="7AKEyjh2fbhWJkEHDeZu-2" value="# HairstylistID" style="text;strokeColor=none;fillColor=none;align=left;verticalAlign=middle;spacingLeft=4;spacingRight=4;overflow=hidden;rotatable=0;points=[[0,0.5],[1,0.5]];portConstraint=eastwest;" parent="7AKEyjh2fbhWJkEHDeZu-1" vertex="1">
          <mxGeometry y="26" width="140" height="26" as="geometry" />
        </mxCell>
        <mxCell id="7AKEyjh2fbhWJkEHDeZu-3" value="* FirstName" style="text;strokeColor=none;fillColor=none;align=left;verticalAlign=middle;spacingLeft=4;spacingRight=4;overflow=hidden;rotatable=0;points=[[0,0.5],[1,0.5]];portConstraint=eastwest;" parent="7AKEyjh2fbhWJkEHDeZu-1" vertex="1">
          <mxGeometry y="52" width="140" height="26" as="geometry" />
        </mxCell>
        <mxCell id="7AKEyjh2fbhWJkEHDeZu-4" value="* LastName" style="text;strokeColor=none;fillColor=none;align=left;verticalAlign=middle;spacingLeft=4;spacingRight=4;overflow=hidden;rotatable=0;points=[[0,0.5],[1,0.5]];portConstraint=eastwest;" parent="7AKEyjh2fbhWJkEHDeZu-1" vertex="1">
          <mxGeometry y="78" width="140" height="26" as="geometry" />
        </mxCell>
        <mxCell id="7AKEyjh2fbhWJkEHDeZu-6" value="* Address" style="text;strokeColor=none;fillColor=none;align=left;verticalAlign=middle;spacingLeft=4;spacingRight=4;overflow=hidden;rotatable=0;points=[[0,0.5],[1,0.5]];portConstraint=eastwest;" parent="7AKEyjh2fbhWJkEHDeZu-1" vertex="1">
          <mxGeometry y="104" width="140" height="26" as="geometry" />
        </mxCell>
        <mxCell id="7AKEyjh2fbhWJkEHDeZu-5" value="* PhoneNumber" style="text;strokeColor=none;fillColor=none;align=left;verticalAlign=middle;spacingLeft=4;spacingRight=4;overflow=hidden;rotatable=0;points=[[0,0.5],[1,0.5]];portConstraint=eastwest;" parent="7AKEyjh2fbhWJkEHDeZu-1" vertex="1">
          <mxGeometry y="130" width="140" height="26" as="geometry" />
        </mxCell>
        <mxCell id="7AKEyjh2fbhWJkEHDeZu-7" value="* SocialsecurityNumber" style="text;strokeColor=none;fillColor=none;align=left;verticalAlign=middle;spacingLeft=4;spacingRight=4;overflow=hidden;rotatable=0;points=[[0,0.5],[1,0.5]];portConstraint=eastwest;" parent="7AKEyjh2fbhWJkEHDeZu-1" vertex="1">
          <mxGeometry y="156" width="140" height="26" as="geometry" />
        </mxCell>
        <mxCell id="7AKEyjh2fbhWJkEHDeZu-8" value="* Salary" style="text;strokeColor=none;fillColor=none;align=left;verticalAlign=top;spacingLeft=4;spacingRight=4;overflow=hidden;rotatable=0;points=[[0,0.5],[1,0.5]];portConstraint=eastwest;" parent="7AKEyjh2fbhWJkEHDeZu-1" vertex="1">
          <mxGeometry y="182" width="140" height="26" as="geometry" />
        </mxCell>
        <mxCell id="7AKEyjh2fbhWJkEHDeZu-9" value="CLIENT" style="swimlane;fontStyle=0;childLayout=stackLayout;horizontal=1;startSize=26;horizontalStack=0;resizeParent=1;resizeParentMax=0;resizeLast=0;collapsible=1;marginBottom=0;rounded=1;verticalAlign=middle;html=1;" parent="1" vertex="1">
          <mxGeometry x="480" y="140" width="140" height="156" as="geometry" />
        </mxCell>
        <mxCell id="7AKEyjh2fbhWJkEHDeZu-10" value="# ClientID" style="text;strokeColor=none;fillColor=none;align=left;verticalAlign=top;spacingLeft=4;spacingRight=4;overflow=hidden;rotatable=0;points=[[0,0.5],[1,0.5]];portConstraint=eastwest;" parent="7AKEyjh2fbhWJkEHDeZu-9" vertex="1">
          <mxGeometry y="26" width="140" height="26" as="geometry" />
        </mxCell>
        <mxCell id="7AKEyjh2fbhWJkEHDeZu-11" value="* FirstName" style="text;strokeColor=none;fillColor=none;align=left;verticalAlign=top;spacingLeft=4;spacingRight=4;overflow=hidden;rotatable=0;points=[[0,0.5],[1,0.5]];portConstraint=eastwest;" parent="7AKEyjh2fbhWJkEHDeZu-9" vertex="1">
          <mxGeometry y="52" width="140" height="26" as="geometry" />
        </mxCell>
        <mxCell id="7AKEyjh2fbhWJkEHDeZu-14" value="° LastName" style="text;strokeColor=none;fillColor=none;align=left;verticalAlign=top;spacingLeft=4;spacingRight=4;overflow=hidden;rotatable=0;points=[[0,0.5],[1,0.5]];portConstraint=eastwest;" parent="7AKEyjh2fbhWJkEHDeZu-9" vertex="1">
          <mxGeometry y="78" width="140" height="26" as="geometry" />
        </mxCell>
        <mxCell id="7AKEyjh2fbhWJkEHDeZu-19" value="° PhoneNumber" style="text;strokeColor=none;fillColor=none;align=left;verticalAlign=top;spacingLeft=4;spacingRight=4;overflow=hidden;rotatable=0;points=[[0,0.5],[1,0.5]];portConstraint=eastwest;" parent="7AKEyjh2fbhWJkEHDeZu-9" vertex="1">
          <mxGeometry y="104" width="140" height="26" as="geometry" />
        </mxCell>
        <mxCell id="7AKEyjh2fbhWJkEHDeZu-20" value="° HairstylistID" style="text;strokeColor=none;fillColor=none;align=left;verticalAlign=top;spacingLeft=4;spacingRight=4;overflow=hidden;rotatable=0;points=[[0,0.5],[1,0.5]];portConstraint=eastwest;" parent="7AKEyjh2fbhWJkEHDeZu-9" vertex="1">
          <mxGeometry y="130" width="140" height="26" as="geometry" />
        </mxCell>
        <mxCell id="7AKEyjh2fbhWJkEHDeZu-12" value="worked on by" style="html=1;verticalAlign=bottom;endArrow=ERmany;fontSize=10;sourcePerimeterSpacing=1;targetPerimeterSpacing=3;strokeWidth=2;endFill=0;" parent="1" edge="1">
          <mxGeometry x="0.25" y="-21" width="80" relative="1" as="geometry">
            <mxPoint x="390" y="218" as="sourcePoint" />
            <mxPoint x="480" y="217.5" as="targetPoint" />
            <mxPoint y="1" as="offset" />
          </mxGeometry>
        </mxCell>
        <mxCell id="7AKEyjh2fbhWJkEHDeZu-13" value="work on" style="html=1;verticalAlign=bottom;endArrow=none;dashed=1;endSize=8;fontSize=10;sourcePerimeterSpacing=1;targetPerimeterSpacing=3;strokeWidth=2;entryX=0.993;entryY=0.769;entryDx=0;entryDy=0;entryPerimeter=0;endFill=0;startArrow=none;startFill=0;" parent="1" edge="1">
          <mxGeometry x="0.5829" y="-8" relative="1" as="geometry">
            <mxPoint x="391" y="218" as="sourcePoint" />
            <mxPoint x="276.0200000000001" y="217.99400000000003" as="targetPoint" />
            <mxPoint as="offset" />
          </mxGeometry>
        </mxCell>
      </root>
    </mxGraphModel>
  </diagram>
</mxfile>
